<svg width="65" height="61" viewBox="0 0 65 61" fill="none" xmlns="http://www.w3.org/2000/svg">
<path fill-rule="evenodd" clip-rule="evenodd" d="M0.346681 20.3071C0.34157 20.167 0.338782 20.026 0.338782 19.8844C0.335993 14.8207 3.70214 10.1824 9.26669 6.76624C15.1068 3.1807 23.3749 0.930001 32.5407 0.925361C41.7065 0.920722 49.9774 3.16307 55.8212 6.74304C61.3885 10.1537 64.7598 14.7882 64.7621 19.852C64.7621 20.0176 64.7589 20.1828 64.7514 20.347L64.764 27.4791C64.764 27.6573 64.7598 27.8345 64.7519 28.0108L64.764 35.0126C64.764 35.1861 64.7603 35.3596 64.7524 35.5331V35.5378L64.764 42.3697C64.7668 47.4687 61.3588 51.9627 55.732 55.2076C49.9002 58.5705 41.6749 60.6031 32.5616 60.6078C23.4488 60.6124 15.2211 58.5881 9.38565 55.2308C3.75512 51.9914 0.342964 47.5012 0.340176 42.4022C0.339711 41.4181 0.335529 37.5634 0.337388 35.9498C0.337388 35.638 0.338317 35.4097 0.339246 35.3002C0.339246 35.2779 0.340176 35.2566 0.342034 35.2362C0.341105 35.1726 0.34064 35.1086 0.340176 35.045C0.339711 34.061 0.335529 30.2063 0.337388 28.5926C0.337388 28.2813 0.338317 28.0526 0.339246 27.9431C0.339246 27.9097 0.34157 27.8781 0.345752 27.8484C0.342034 27.7371 0.34064 27.6243 0.340176 27.5116C0.339711 26.5275 0.335529 22.6734 0.337388 21.0592C0.337388 20.7479 0.338317 20.5192 0.339246 20.4101C0.339246 20.373 0.342034 20.3391 0.346681 20.3071ZM28.8023 53.136V59.2316C29.8409 59.2971 30.8943 59.3356 31.9612 59.3458V53.2803C31.9612 53.2706 31.9612 53.2613 31.9617 53.252L31.9622 53.2479C30.8953 53.2381 29.8414 53.2001 28.8023 53.136ZM40.4031 52.7287C38.0978 53.0414 35.694 53.2186 33.2215 53.2465V53.2479C33.2219 53.2585 33.2224 53.2697 33.2224 53.2803V59.3444C35.6973 59.3161 38.1015 59.1351 40.4031 58.8159V52.7287ZM24.7736 52.744V58.8312C25.7127 58.9597 26.6685 59.0651 27.6392 59.1463V53.0521C26.669 52.9723 25.7136 52.8693 24.7736 52.744ZM21.0138 52.1042V58.1766C21.8307 58.351 22.6644 58.5069 23.5129 58.6438V52.5603C22.6648 52.4266 21.8312 52.2744 21.0138 52.1042ZM47.3017 51.3117C45.5141 51.8156 43.6284 52.229 41.6642 52.5426V58.6257C43.6331 58.3037 45.5197 57.8792 47.3017 57.3609V51.3117ZM18.0287 51.3846V57.4361C18.6249 57.6054 19.2327 57.7646 19.8507 57.913V51.8476C19.2332 51.7038 18.6258 51.5493 18.0287 51.3846ZM14.3076 50.1764V56.1857C15.1003 56.497 15.9214 56.7879 16.7676 57.0566V51.0171C15.9232 50.7573 15.1026 50.4766 14.3076 50.1764ZM53.8417 48.8532C52.2209 49.6438 50.4528 50.342 48.5629 50.9359V56.973C50.4634 56.3555 52.2325 55.628 53.8417 54.8021V48.8532ZM11.4981 48.9812V54.9362C12.0297 55.203 12.5789 55.4596 13.1445 55.705V49.7152C12.5803 49.4809 12.0315 49.2359 11.4981 48.9812ZM8.67748 47.4524V53.3174C9.10777 53.6 9.55387 53.8742 10.0153 54.1401C10.0887 54.1818 10.1621 54.224 10.2369 54.2658V48.3451C9.94792 48.1911 9.664 48.0338 9.38565 47.8737C9.14541 47.7355 8.90889 47.5949 8.67748 47.4524ZM58.778 45.8016C57.8537 46.5296 56.8356 47.214 55.732 47.8505C55.5247 47.9698 55.3147 48.0876 55.1023 48.2031V54.1164C56.4722 53.3263 57.7055 52.4605 58.778 51.5279V45.8016ZM6.4038 45.8801V51.6128C6.75695 51.9167 7.12777 52.2132 7.51438 52.5023V46.6948C7.13102 46.4299 6.76067 46.1584 6.4038 45.8801ZM28.8023 45.6026V51.8745C29.8409 51.9404 30.8943 51.9784 31.9612 51.9886V45.9232C31.9612 45.8531 31.9729 45.784 31.9956 45.7177L31.9966 45.7149C30.9176 45.7056 29.8516 45.6676 28.8023 45.6026ZM40.4031 45.1952C38.0871 45.5098 35.6712 45.687 33.1866 45.714C33.2103 45.7812 33.2219 45.8518 33.2224 45.9232V51.9873C35.6973 51.959 38.1015 51.778 40.4031 51.4588V45.1952ZM24.7736 45.2105V51.4746C25.7127 51.6026 26.6685 51.7079 27.6392 51.7891V45.5186C26.669 45.4393 25.7136 45.3363 24.7736 45.2105ZM21.0138 44.5712V50.8194C21.8307 50.9939 22.6644 51.1498 23.5129 51.2867V45.1651C23.5129 45.1196 23.5175 45.0746 23.5273 45.0305V45.0291C22.6741 44.8951 21.8354 44.7419 21.0138 44.5712ZM47.3017 43.7783C45.5137 44.2826 43.6266 44.696 41.6614 45.0097V45.011C41.6633 45.031 41.6642 45.0509 41.6642 45.0714V51.2686C43.6331 50.9466 45.5197 50.522 47.3017 50.0038V43.7783ZM18.0287 43.8511V50.079C18.6249 50.2488 19.2327 50.4074 19.8507 50.5559V44.3146C19.2332 44.1703 18.6258 44.0158 18.0287 43.8511ZM3.72166 48.597C3.72166 48.6305 3.71887 48.6634 3.71329 48.6963L3.71283 48.6996C4.1329 49.293 4.61106 49.8674 5.14265 50.4218V44.8171C4.6315 44.3504 4.15753 43.8683 3.72166 43.3723V48.597ZM63.4991 40.2489C62.6948 41.8537 61.5242 43.3556 60.0391 44.7276V50.3216C62.2459 47.9892 63.5042 45.301 63.5028 42.3701L63.4991 40.2489ZM14.3076 42.6434V48.8286C15.1003 49.1399 15.9214 49.4308 16.7676 49.6999V43.5273C16.7676 43.5134 16.768 43.4999 16.769 43.4865V43.4841C15.9242 43.2243 15.1026 42.9436 14.3076 42.6434ZM53.8417 41.3202C52.2209 42.1108 50.4528 42.8091 48.5629 43.4025V43.4048V49.6159C50.4634 48.9984 52.2325 48.2709 53.8417 47.4455V41.3202ZM11.4981 41.4478V47.5791C12.0297 47.8463 12.5789 48.1025 13.1445 48.3479V42.1822C12.5803 41.9475 12.0315 41.7025 11.4981 41.4478ZM8.67748 39.919V45.9603C9.10777 46.2429 9.55387 46.5171 10.0153 46.7829C10.0887 46.8247 10.1621 46.8669 10.2369 46.9087V40.8882C10.2369 40.8641 10.2383 40.8404 10.2411 40.8163V40.814C9.95024 40.659 9.66539 40.5013 9.38565 40.3408C9.14541 40.202 8.90889 40.0614 8.67748 39.919ZM58.778 38.2687C57.8537 38.9966 56.8356 39.681 55.732 40.3171C55.5247 40.4363 55.3147 40.5542 55.1023 40.6697V46.7593C56.4722 45.9691 57.7055 45.1034 58.778 44.1708V38.2687ZM1.59993 40.2586C1.60039 41.2056 1.60132 42.0198 1.60132 42.4017C1.60225 43.9068 1.93542 45.3483 2.55856 46.7092V41.8807C2.19704 41.3531 1.87641 40.8117 1.59993 40.2586ZM6.4038 38.3466V44.2557C6.75695 44.5596 7.12777 44.8561 7.51438 45.1451V39.1614C7.13102 38.8964 6.76067 38.625 6.4038 38.3466ZM28.8023 44.3415C29.8544 44.406 30.9073 44.4436 31.9612 44.4557V38.8083C30.8943 38.7976 29.8404 38.7563 28.8023 38.6862V44.3415ZM40.4031 38.2436C38.0987 38.5828 35.695 38.7767 33.2224 38.8073V44.4543C35.6252 44.4218 38.0221 44.2511 40.4031 43.9258V38.2436ZM24.7736 43.9411C25.7262 44.0697 26.6815 44.174 27.6392 44.2557V38.5948C26.669 38.5081 25.7136 38.3958 24.7736 38.2599V43.9411ZM21.0138 43.286C21.8437 43.4605 22.676 43.6159 23.5129 43.7532V38.0608C22.6648 37.9161 21.8317 37.7518 21.0138 37.5681V43.286ZM47.3017 36.7149C45.5146 37.2558 43.6289 37.7022 41.6642 38.0418V43.7351C43.5666 43.421 45.4491 43.0053 47.3017 42.4704V36.7149ZM3.72166 35.8393V41.355C4.13987 41.9442 4.61477 42.5144 5.14265 43.0647V37.311C5.14265 37.3032 5.14312 37.2948 5.14312 37.2869V37.2841C4.63243 36.8174 4.15799 36.3358 3.72166 35.8393ZM18.0287 42.546C18.6333 42.7158 19.2406 42.8745 19.8507 43.0225V37.2916C19.2332 37.1361 18.6254 36.97 18.0287 36.7933V42.546ZM63.4991 32.7159C62.6948 34.3208 61.5242 35.8226 60.0391 37.1941V42.9645C62.1204 40.7648 63.3583 38.2483 63.4912 35.5104L63.4903 35.2204H63.501V35.219C63.5024 35.1504 63.5028 35.0817 63.5028 35.013L63.4991 32.7159ZM14.3076 41.2951C15.1184 41.6116 15.9386 41.9011 16.7676 42.1665V36.3989C15.9228 36.1205 15.1022 35.8208 14.3076 35.5006V41.2951ZM53.8417 34.093C52.2209 34.9314 50.4528 35.676 48.5629 36.3121V42.0825C50.3747 41.4895 52.1428 40.7778 53.8417 39.912V34.093ZM11.4981 40.0461C12.0408 40.3157 12.5892 40.5713 13.1445 40.8149V35.0093C12.5808 34.7597 12.0315 34.4994 11.4981 34.2289V40.0461ZM8.67748 38.4269C9.18723 38.7596 9.70675 39.0755 10.2369 39.3757V33.5557C9.91074 33.3724 9.59197 33.185 9.27971 32.9938C9.07617 32.869 8.87497 32.7424 8.67748 32.6143V38.4269ZM1.59946 32.7247C1.60039 33.7473 1.60132 34.6391 1.60132 35.0446C1.60225 36.5501 1.93542 37.9912 2.55856 39.352V34.3477C2.19704 33.8197 1.87641 33.2782 1.59946 32.7247ZM58.778 30.8809C57.8825 31.6186 56.8988 32.3169 55.8342 32.9702C55.5944 33.1177 55.35 33.2625 55.1023 33.4049V39.2258C56.4021 38.4719 57.6404 37.62 58.778 36.6374V30.8809ZM6.4038 36.7227C6.76532 37.0303 7.1352 37.3264 7.51438 37.6122V31.8177C7.13056 31.5402 6.76067 31.2558 6.4038 30.9649V36.7227ZM33.7126 37.5393C35.5198 37.5003 37.2874 37.3723 39.0044 37.1626L35.6578 35.5656C35.4984 35.4607 35.3311 35.3837 35.207 35.5057L33.7126 37.5393ZM29.8497 35.5081C29.7893 35.4371 29.642 35.4088 29.4459 35.5243L26.0663 37.163C27.7787 37.3728 29.5426 37.5003 31.3455 37.5393L29.8497 35.5081ZM36.1401 5.2152C35.6104 5.44626 34.9645 5.57292 34.4631 5.20175C34.359 5.12473 34.2688 5.03008 34.1931 4.92476C34.1564 4.87372 34.1285 4.8148 34.0913 4.76422C33.5662 4.0525 33.3971 2.63137 32.5119 2.63183C31.6262 2.6323 31.4585 4.05343 30.9343 4.76562C30.8971 4.81619 30.8697 4.87511 30.8325 4.92661C30.7572 5.03147 30.6671 5.12658 30.563 5.20406C30.0621 5.5757 29.4162 5.4495 28.886 5.21891L23.9097 2.89026C21.5835 3.27953 19.3693 3.82098 17.301 4.49652L16.7903 7.54246C16.689 8.02962 16.4279 8.2797 16.1375 8.41564C15.7471 8.59752 15.2197 8.51215 14.8814 8.40776L11.4335 7.56891L12.538 9.21228C12.8336 9.5584 13.0143 10.1119 12.5957 10.5262C12.4446 10.6761 12.124 10.8635 11.4563 10.9141L5.53205 11.2769C4.40149 12.428 3.48839 13.6585 2.82715 14.952L6.4261 17.6022C6.87359 17.9488 6.96374 18.2749 6.96606 18.4865C6.96885 18.7705 6.83874 19.0182 6.57759 19.1978C6.38521 19.33 6.07573 19.4191 5.83828 19.4655L3.2356 20.1303L5.83874 20.7929C6.07666 20.8388 6.38614 20.9274 6.57852 21.0597C6.84013 21.2388 6.97024 21.4865 6.96745 21.7705C6.96559 21.982 6.87591 22.3082 6.42842 22.6553L3.02185 25.1704C3.7198 26.4324 4.65938 27.6318 5.80715 28.7522L12.0529 29.0951C13.0859 29.1656 13.3526 29.5943 13.42 29.8231C13.512 30.1349 13.3485 30.5204 13.1235 30.7612L12.1082 32.1425L15.5115 31.3834C15.8312 31.2929 16.3261 31.2145 16.7007 31.3593C17.0199 31.4832 17.2968 31.7258 17.407 32.2065L18.0087 35.4742C19.8396 36.0347 21.7787 36.4926 23.8033 36.8341L28.9009 34.4414C29.4306 34.2099 30.0765 34.0832 30.5779 34.4549C30.682 34.5319 30.7721 34.6265 30.8479 34.7319C30.885 34.7829 30.9125 34.8418 30.9496 34.8924C31.4747 35.6041 32.5291 37.0248 32.5291 37.0248C32.5291 37.0248 33.5825 35.6032 34.1067 34.8905C34.1438 34.84 34.1713 34.7815 34.2084 34.73C34.2837 34.6247 34.3739 34.53 34.478 34.4525C34.9789 34.0809 35.6248 34.2071 36.155 34.4377L41.2711 36.8327C43.3566 36.4805 45.3519 36.005 47.2316 35.4213L47.7938 32.2761C47.9012 31.7931 48.174 31.5481 48.4848 31.421C48.8635 31.266 49.3673 31.3463 49.6921 31.44L53.1079 32.2181L52.0657 30.7659C51.8505 30.5297 51.6883 30.1567 51.7673 29.85C51.8291 29.6106 52.088 29.1642 53.1381 29.0891L59.2603 28.7662C60.4169 27.6424 61.3639 26.4384 62.067 25.1718L58.6153 22.6288C58.1678 22.2822 58.0777 21.9565 58.0754 21.7445C58.0721 21.4605 58.2027 21.2128 58.4638 21.0332C58.6562 20.9015 58.9657 20.8119 59.2032 20.766L61.8054 20.1007L59.2022 19.4386C58.9648 19.3926 58.6553 19.3036 58.4629 19.1718C58.2013 18.9922 58.0707 18.7445 58.074 18.461C58.0758 18.249 58.1655 17.9233 58.613 17.5757L62.2519 14.8894C61.5944 13.6149 60.6911 12.4016 59.5768 11.2667L53.5759 10.8928C52.9081 10.8427 52.5875 10.6557 52.436 10.5063C52.0169 10.0924 52.1972 9.53844 52.4922 9.19186L53.5954 7.54756L50.1479 8.39013C49.8101 8.49452 49.2827 8.58082 48.8924 8.39894C48.6015 8.26393 48.3403 8.01339 48.2381 7.52668L47.719 4.45986C45.6507 3.79082 43.437 3.25494 41.1136 2.8717L36.1401 5.2152ZM3.72166 33.822C4.15474 34.4256 4.63057 34.9931 5.14265 35.5313V29.8556C4.63197 29.3702 4.15753 28.8701 3.72166 28.3569V33.822ZM63.4987 25.1403C62.6948 26.7809 61.5242 28.3324 60.0391 29.7604V35.4311C62.119 33.2332 63.3565 30.7185 63.4908 27.983L63.4903 27.8633H63.4959C63.5005 27.7357 63.5028 27.6081 63.5028 27.4801L63.4987 25.1403ZM16.1877 32.5405C16.0761 32.5545 15.9641 32.5679 15.8549 32.5948L12.5325 33.3372C13.8187 33.9635 15.1937 34.5305 16.6454 35.0307L16.1877 32.5405ZM48.5926 34.9722C49.9607 34.4943 51.2608 33.957 52.4811 33.3664L49.3417 32.6496C49.2348 32.6222 49.1256 32.6087 49.0169 32.5948L48.5926 34.9722ZM32.655 5.98585C26.3465 5.9891 20.6588 7.55127 16.6393 10.0191C12.6296 12.4809 10.263 15.8637 10.2648 19.5128C10.2667 23.1619 12.6366 26.5419 16.6491 29C20.6709 31.4637 26.36 33.0203 32.6685 33.017C38.9775 33.0142 44.6647 31.4516 48.6846 28.9838C52.6944 26.522 55.061 23.1396 55.0591 19.4901C55.0573 15.841 52.6874 12.461 48.6749 10.0029C44.6526 7.53921 38.9635 5.9826 32.655 5.98585ZM7.33083 30.0968C8.13148 30.738 9.00322 31.3472 9.93909 31.9207C10.1152 32.0283 10.2936 32.1346 10.4735 32.2399L11.8736 30.346L7.33083 30.0968ZM53.3031 30.3409L54.6516 32.2102C54.8277 32.1077 55.002 32.0033 55.1739 31.8975C56.1033 31.3268 56.969 30.7213 57.7631 30.0848L53.3031 30.3409ZM1.60132 27.5111C1.60643 28.2085 1.67381 28.9016 1.8174 29.5841C1.97957 30.3557 2.23514 31.1008 2.55856 31.8191V26.8184C2.19704 26.2761 1.87641 25.7216 1.59946 25.156L1.60132 27.5111ZM32.6555 7.24506C44.3208 7.23903 53.7947 12.7264 53.798 19.491C53.8012 26.2556 44.3334 31.7523 32.668 31.7583C21.0027 31.7639 11.5292 26.277 11.5255 19.5123C11.5223 12.7477 20.9901 7.25062 32.6555 7.24506ZM32.6559 8.21475C43.4068 8.20918 52.1372 13.266 52.1405 19.5003C52.1437 25.7346 43.4184 30.8002 32.6676 30.8058C21.9172 30.8109 13.1863 25.7541 13.183 19.5198C13.1798 13.2859 21.9055 8.22032 32.6559 8.21475ZM32.6569 9.47395C37.9677 9.47117 42.766 10.7448 46.1521 12.8187C49.0239 14.5781 50.8784 16.8891 50.8793 19.5007C50.8807 22.1129 49.029 24.4258 46.1586 26.1879C42.7748 28.2655 37.9775 29.5438 32.6671 29.5466C27.3563 29.5493 22.558 28.2758 19.1718 26.2014C16.3001 24.442 14.4456 22.1314 14.4442 19.5193C14.4428 16.9072 16.295 14.5948 19.1649 12.8326C22.5491 10.755 27.346 9.47674 32.6569 9.47395ZM32.3506 25.2507L38.0913 21.9403L26.524 20.5303L20.7833 23.8412L32.3506 25.2507ZM59.7733 21.9175L62.6306 24.0221C63.0493 23.0399 63.3235 22.0243 63.4387 20.9827L59.7733 21.9175ZM1.66498 21.0295C1.78069 22.054 2.05067 23.0529 2.46005 24.0193L5.26997 21.9454L1.66498 21.0295ZM38.0913 21.9403L43.8324 18.6294L41.1861 12.0754L35.445 15.3858L38.0913 21.9403ZM26.524 20.5303L35.445 15.3858L23.8777 13.9763L26.524 20.5303ZM2.30252 16.13C1.9187 17.1373 1.68589 18.178 1.61944 19.2442L5.26765 18.3135L2.30252 16.13ZM59.7715 18.2861L63.4815 19.2284C63.415 18.1446 63.1757 17.0872 62.7812 16.0646L59.7715 18.2861ZM10.0488 7.7647L9.92701 7.83893C8.86567 8.49081 7.88706 9.18769 7.00277 9.92539L11.3294 9.66047L10.0488 7.7647ZM53.7013 9.63913L58.094 9.90451C57.2073 9.16634 56.2259 8.46807 55.1614 7.8162C55.107 7.78279 55.0522 7.74939 54.9973 7.71645L53.7013 9.63913ZM15.9442 4.96605C14.6849 5.4277 13.4865 5.93992 12.3578 6.49853L15.2536 7.20469C15.354 7.23207 15.4572 7.24645 15.5599 7.26176L15.9442 4.96605ZM49.4686 7.24459C49.5713 7.22928 49.6744 7.2149 49.7748 7.18706L52.7097 6.46838C51.5666 5.90512 50.3528 5.38919 49.0764 4.92568L49.4686 7.24459ZM31.2675 2.19988C29.5324 2.24117 27.8335 2.36459 26.1834 2.56363L29.3995 4.06874C29.544 4.09611 29.689 4.12349 29.8339 4.15086L31.2675 2.19988ZM35.1912 4.14808C35.3362 4.1207 35.4812 4.09286 35.6257 4.06549L38.8539 2.55157C37.1973 2.35531 35.4942 2.23468 33.7544 2.19709L35.1912 4.14808Z" fill="#EDEDED"/>
</svg>
