<svg width="51" height="66" viewBox="0 0 51 66" fill="none" xmlns="http://www.w3.org/2000/svg">
<path fill-rule="evenodd" clip-rule="evenodd" d="M50.8683 24.1483C51.7317 39.1029 44.7894 55.2874 32.9558 62.9698C32.5437 63.237 32.1236 63.4918 31.6952 63.7321C27.9294 65.8431 23.2631 66.9516 19.0609 64.718L7.55126 57.829C7.44299 57.7562 7.44299 57.7562 7.33565 57.682C2.65306 54.3734 1.12333 47.9869 0.871474 42.7042C0.154937 27.6624 7.03547 11.476 19.0465 3.89149C22.771 1.53964 27.1822 -0.0466666 31.6189 1.79111C38.4572 5.68333 36.2964 4.66167 43.13 8.52327C43.4074 8.6787 43.6756 8.84433 43.9348 9.01925C44.5124 9.38625 45.0682 9.81913 45.5951 10.323C49.2949 13.8598 50.596 19.1662 50.8683 24.1483ZM42.5148 9.66973C41.5543 9.13988 40.4985 8.77335 39.3568 8.62488C36.5892 8.2653 33.7648 9.15055 31.3202 10.4882C24.9131 14.0514 20.3946 20.4236 17.232 27.2341C13.0219 36.3005 10.6381 46.8613 14.0861 56.3555C15.4954 60.2366 18.5187 63.9882 22.9187 64.5598L22.9657 64.5654C26.8453 64.9087 31.0079 63.1452 33.8494 60.9446C34.1217 60.7339 36.8457 58.4911 38.4312 56.8909C49.7987 45.4179 55.78 16.9883 42.5148 9.66973ZM31.763 11.6022C35.7067 9.48786 40.6835 9.07261 44.2188 12.3593C47.7759 15.6665 48.8056 20.8198 48.9413 25.453C49.2931 37.4358 44.3703 50.0279 35.6366 58.0012C31.1478 62.0999 24.4164 65.1073 19.2454 60.9288C15.265 57.7126 14.1372 52.1872 13.9959 47.3782C13.725 38.1471 16.7575 28.8919 21.9234 21.1845C24.4294 17.4458 27.5307 14.0176 31.4252 11.7891C31.5376 11.726 31.6501 11.6639 31.763 11.6022ZM32.0511 12.8883C24.2212 17.3688 19.4666 26.1526 16.9174 35.0835C14.9374 42.0189 14.054 49.8061 17.185 56.2168C18.5089 58.9277 20.9633 61.2977 24.0786 61.6456C28.9796 62.1936 33.7388 58.57 37.1974 54.579C46.0166 44.4009 51.1044 29.0849 46.064 17.2955C44.781 14.2946 42.1946 11.5219 38.7736 11.1762C36.4442 10.941 34.1082 11.7297 32.0511 12.8883ZM6.4574 55.2466C6.98435 55.8085 7.57124 56.317 8.22319 56.7564L14.9954 60.9149C14.7455 60.566 14.5113 60.2069 14.2924 59.839L6.4574 55.2466ZM4.28641 52.0605C4.40444 52.2986 4.52805 52.5333 4.65769 52.7644L13.2575 57.7896C13.1474 57.5307 13.0429 57.2686 12.9439 57.0041L4.28641 52.0605ZM3.23298 49.3886C3.2762 49.5273 3.32081 49.6651 3.36635 49.8029C3.40538 49.9203 3.44488 50.0367 3.48623 50.1532L12.3677 55.222C12.2905 54.9446 12.219 54.6653 12.1521 54.3846L3.23298 49.3886ZM33.1208 18.9314L36.2314 29.0993L46.2973 23.3034L38.1538 35.3828L41.2643 45.5506L33.1208 42.8485L24.9777 54.9283L28.0883 41.1787L19.9448 38.4765L30.0107 32.6811L33.1208 18.9314ZM2.54665 46.7978C2.60985 47.0873 2.67676 47.3763 2.74832 47.6635L11.817 52.7426C11.7696 52.4679 11.7264 52.1928 11.6869 51.9176L2.54665 46.7978ZM2.09916 44.2214C2.14098 44.5387 2.18745 44.8551 2.23857 45.1706L11.5048 50.3601C11.4774 50.0659 11.4541 49.7727 11.4346 49.4804L2.09916 44.2214ZM1.87147 41.7809C1.8882 42.0788 1.90864 42.3757 1.93327 42.6717L11.364 47.9837C11.3556 47.6904 11.3505 47.3967 11.3482 47.1035L1.87147 41.7809ZM1.81989 39.2959C1.81292 39.7608 1.81524 40.2247 1.82686 40.6873L1.99182 40.3913L11.3626 45.6545C11.3723 45.3112 11.3853 44.9679 11.403 44.625L1.81989 39.2959ZM1.96998 36.4597C1.92769 36.9292 1.89377 37.3987 1.86822 37.8678L11.4978 43.222C11.5336 42.7937 11.5754 42.3655 11.6237 41.9382L1.96998 36.4597ZM2.31338 33.7366C2.22091 34.3115 2.14098 34.8863 2.0736 35.4617L2.23857 35.1675L11.7966 40.5927C11.8654 40.1129 11.942 39.6341 12.0261 39.1562L2.31338 33.7366ZM2.90678 30.7505C2.77527 31.3078 2.65445 31.8668 2.54618 32.4268L12.2747 37.8553C12.3886 37.3022 12.5127 36.7506 12.646 36.2012L2.90678 30.7505ZM3.74413 27.7004C3.54804 28.3272 3.36588 28.9573 3.19767 29.5902L3.24785 29.5001L12.9713 34.942C13.1339 34.3444 13.3082 33.7496 13.4941 33.1581L3.74413 27.7004ZM4.9142 24.4049C4.64097 25.092 4.384 25.7852 4.14376 26.4825L13.8937 31.9401C14.133 31.2419 14.3886 30.5478 14.659 29.8597L4.9142 24.4049ZM6.35703 21.1404C6.0206 21.8303 5.7009 22.529 5.39793 23.2338L15.1376 28.6859C15.436 27.9783 15.751 27.2777 16.0814 26.5841L6.35703 21.1404ZM8.09308 17.894C7.68555 18.5904 7.29522 19.298 6.92301 20.0148L16.6376 25.453C17.0029 24.7324 17.3848 24.0207 17.7831 23.3187L8.09308 17.894ZM10.4035 14.3154C9.82541 15.1288 9.27151 15.9625 8.74317 16.8148L18.4178 22.2312C18.9322 21.3738 19.4708 20.5317 20.0331 19.7067L10.4035 14.3154ZM13.4527 10.4696C12.6535 11.3734 11.8853 12.3157 11.1516 13.291L20.7593 18.6698C21.4671 17.6885 22.2152 16.7332 23.0065 15.8182L13.4527 10.4696ZM17.5531 6.48135C16.4652 7.36428 15.4415 8.33351 14.4913 9.33521L14.324 9.51291L23.8681 14.8564C24.809 13.844 25.8076 12.8901 26.8685 12.0155L17.5531 6.48135ZM23.5237 3.01552C21.8007 3.61357 20.1622 4.53594 18.6334 5.64899L27.9377 11.1767C28.8587 10.491 29.8239 9.86553 30.8355 9.31201C30.9201 9.26608 31.0051 9.22061 31.0906 9.17561C31.6036 8.90836 32.1315 8.66617 32.67 8.45275L23.5237 3.01552ZM38.5594 7.38237C34.0966 4.8454 38.6352 7.23947 34.1733 4.70018L31.0609 2.92875C29.9633 2.47407 28.7686 2.26389 27.5785 2.27317C26.7825 2.2857 25.9986 2.37802 25.2287 2.53995L34.2639 7.91362C35.6737 7.51785 37.1273 7.32438 38.5594 7.38237Z" fill="#EDEDED"/>
</svg>
