<svg width="463" height="150" viewBox="0 0 463 150" fill="none" xmlns="http://www.w3.org/2000/svg">
<path d="M462.133 0H0V82.2789H462.133V0Z" fill="#FF267E"/>
<path d="M149.886 39.5283H122.383V31.544H155.654V20.522H106.435V61.5723H122.383V50.5503H149.886V39.5283Z" fill="#000055"/>
<path d="M237.302 47.8615L222.709 20.522H204.401L228.107 61.5723H246.272L269.958 20.522H251.916L237.302 47.8615Z" fill="#000055"/>
<path d="M321.083 40.7187C324.731 39.3045 327.173 35.805 327.241 31.8929C327.241 25.1607 321.555 20.522 310.369 20.522H274.266V61.5723H311.211C323.218 61.5723 328.554 56.831 328.554 49.955C328.472 46.1168 326.153 42.6481 321.083 40.7187ZM289.803 30.4562H307.598C307.802 30.4151 308.009 30.3946 308.216 30.3946C309.94 30.3946 311.357 31.8129 311.357 33.5349C311.357 35.257 309.94 36.6753 308.216 36.6753C308.009 36.6753 307.802 36.6548 307.598 36.6137H289.803V30.4562ZM308.891 51.8023H289.803V45.6448H308.891C309.095 45.6037 309.302 45.5832 309.509 45.5832C311.233 45.5832 312.65 47.0015 312.65 48.7235C312.65 50.4456 311.233 51.8639 309.509 51.8639C309.302 51.8639 309.095 51.8433 308.891 51.8023Z" fill="#000055"/>
<path d="M351.991 45.5011H379.454V36.5932H351.991V31.544H382.348V20.522H336.043V61.5723H383.066V50.5503H351.991V45.5011Z" fill="#000055"/>
<path d="M389.656 20.522V31.544H407.554V61.5723H423.686V31.544H441.564V20.522H389.656Z" fill="#000055"/>
<path d="M174.185 20.522L150.499 61.5723H167.453L170.655 55.5173H195.983L199.185 61.5723H216.836L193.13 20.522H174.185ZM176.237 44.8648L183.237 31.6466L190.236 44.8648H176.237Z" fill="#000055"/>
<path d="M21.2136 36.612L35.3554 61.5705H53.5201L39.3578 36.612H21.2136Z" fill="#000055"/>
<path d="M67.6626 36.612L53.5208 61.5705H71.665L85.8067 36.612H67.6626Z" fill="#000055"/>
<path d="M53.5197 11.7148L39.3574 36.6118H67.6615L53.5197 11.7148Z" fill="#000055"/>
<path d="M0.702416 149.298V82.1309H202.466V149.298H0.702416Z" fill="#000055" stroke="#FF267E" stroke-width="1.40483"/>
<path d="M45.3063 120.636C45.1175 122.021 44.7399 123.256 44.098 124.416C43.456 125.576 42.5875 126.549 41.568 127.373C40.5485 128.233 39.3402 128.87 37.9808 129.319C36.5837 129.805 35.0733 130.03 33.4496 130.03C31.4106 130.03 29.5981 129.693 28.0121 129.019C26.4262 128.383 25.1046 127.447 24.0096 126.175C22.8768 124.94 22.0838 123.48 21.5174 121.721C20.951 119.962 20.6489 118.016 20.6489 115.845C20.6489 113.712 20.951 111.766 21.5552 110.044C22.1593 108.322 23.0278 106.863 24.1606 105.665C25.2557 104.467 26.615 103.532 28.2387 102.895C29.8246 102.259 31.5994 101.922 33.6006 101.922C35.2243 101.922 36.697 102.147 38.0186 102.559C39.3402 103.008 40.5107 103.644 41.5303 104.43C42.5498 105.253 43.3805 106.226 44.0224 107.349C44.6644 108.509 45.0797 109.782 45.3063 111.204H40.1709C39.9066 110.269 39.5667 109.445 39.1514 108.809C38.6983 108.173 38.2074 107.686 37.641 107.274C37.0368 106.863 36.4327 106.601 35.753 106.414C35.0355 106.264 34.3181 106.189 33.5629 106.189C32.5434 106.189 31.5616 106.376 30.6931 106.788C29.7869 107.237 28.9939 107.836 28.352 108.659C27.7101 109.483 27.1814 110.493 26.8038 111.691C26.4262 112.888 26.2374 114.273 26.2374 115.845C26.2374 117.454 26.4262 118.914 26.8038 120.112C27.1814 121.347 27.7101 122.395 28.352 123.218C28.9939 124.079 29.7491 124.715 30.6176 125.127C31.4861 125.539 32.3923 125.763 33.3741 125.763C34.167 125.763 34.96 125.688 35.6774 125.464C36.3949 125.277 37.0746 124.977 37.6787 124.566C38.2451 124.191 38.7738 123.63 39.1891 122.994C39.6045 122.357 39.9443 121.571 40.1709 120.636H45.3063Z" fill="#FF267E"/>
<path d="M60.2583 102.402H65.6957L75.9287 129.536H70.0759L68.1501 124.035H57.5018L55.576 129.536H50.063L60.2583 102.402ZM59.05 119.656H66.602L62.826 108.952L59.05 119.656Z" fill="#FF267E"/>
<path d="M89.446 117.642C88.351 117.417 87.2937 117.118 86.3119 116.706C85.2924 116.294 84.4239 115.77 83.7065 115.134C82.9513 114.498 82.3471 113.749 81.9317 112.851C81.4786 111.99 81.2521 110.942 81.2521 109.782C81.2521 108.397 81.5919 107.237 82.2716 106.227C82.9135 105.253 83.782 104.43 84.8393 103.794C85.8588 103.158 87.0293 102.708 88.351 102.372C89.6348 102.072 90.9186 101.922 92.1647 101.922C93.5619 101.922 94.9212 102.11 96.2051 102.521C97.4511 102.933 98.5839 103.494 99.5657 104.205C100.547 104.954 101.34 105.852 101.945 106.9C102.511 107.948 102.851 109.108 102.926 110.418H97.7155C97.6022 109.632 97.3756 108.959 96.998 108.397C96.6204 107.873 96.1673 107.424 95.6387 107.087C95.11 106.788 94.5059 106.526 93.8639 106.376C93.222 106.264 92.5801 106.189 91.9382 106.189C91.2962 106.189 90.6921 106.264 90.0502 106.376C89.4082 106.488 88.8418 106.676 88.351 106.938C87.8601 107.237 87.4447 107.574 87.1426 107.986C86.8028 108.435 86.6517 108.959 86.6517 109.557C86.6517 110.493 87.0293 111.242 87.7468 111.803C88.4642 112.364 89.3705 112.739 90.4655 112.926L94.0527 113.562C95.1478 113.749 96.2806 114.049 97.4134 114.386C98.5084 114.722 99.528 115.209 100.434 115.808C101.303 116.444 102.02 117.23 102.587 118.166C103.153 119.139 103.417 120.336 103.417 121.721C103.417 123.106 103.115 124.341 102.473 125.352C101.831 126.399 100.963 127.26 99.9433 127.971C98.886 128.683 97.6777 129.169 96.3939 129.506C95.0723 129.88 93.7129 130.03 92.3158 130.03C90.6166 130.03 89.1062 129.805 87.7468 129.356C86.3497 128.944 85.1791 128.308 84.1596 127.485C83.1401 126.699 82.3471 125.726 81.7429 124.528C81.1388 123.368 80.7612 122.058 80.6479 120.598H85.8588C86.0098 121.609 86.2741 122.432 86.6895 123.069C87.1049 123.742 87.5958 124.266 88.1999 124.678C88.7663 125.09 89.446 125.352 90.2012 125.501C90.9186 125.688 91.7116 125.763 92.5046 125.763C93.1087 125.763 93.7507 125.688 94.3926 125.576C95.0345 125.464 95.6009 125.239 96.1673 124.94C96.6959 124.678 97.1491 124.304 97.4889 123.78C97.8287 123.293 97.9798 122.694 97.9798 121.983C97.9798 121.422 97.8665 120.898 97.6022 120.486C97.3379 120.074 96.998 119.738 96.5449 119.438C96.0918 119.176 95.5631 118.914 94.959 118.727C94.3171 118.54 93.6374 118.39 92.9199 118.278L89.446 117.642Z" fill="#FF267E"/>
<path d="M115.921 102.402H110.521V129.536H115.921V102.402Z" fill="#FF267E"/>
<path d="M140.648 129.536L129.697 108.839V129.536H124.6V102.402H131.623L142.573 123.099V102.402H147.671V129.536H140.648Z" fill="#FF267E"/>
<path d="M160.851 115.957C160.851 117.567 161.077 118.952 161.493 120.187C161.908 121.422 162.437 122.432 163.154 123.256C163.872 124.079 164.702 124.715 165.646 125.127C166.59 125.539 167.61 125.763 168.667 125.763C169.725 125.763 170.744 125.539 171.688 125.127C172.632 124.715 173.463 124.079 174.18 123.256C174.898 122.432 175.464 121.422 175.879 120.187C176.257 118.952 176.484 117.567 176.484 115.957C176.484 114.348 176.257 112.963 175.879 111.728C175.464 110.531 174.898 109.52 174.18 108.697C173.463 107.873 172.632 107.237 171.688 106.825C170.744 106.414 169.725 106.189 168.667 106.189C167.61 106.189 166.59 106.414 165.646 106.825C164.702 107.237 163.872 107.873 163.154 108.697C162.437 109.52 161.908 110.531 161.493 111.728C161.077 112.963 160.851 114.348 160.851 115.957ZM182.072 115.957C182.072 118.053 181.77 119.962 181.128 121.684C180.486 123.443 179.618 124.902 178.447 126.137C177.239 127.41 175.842 128.346 174.218 129.019C172.557 129.693 170.706 130.03 168.667 130.03C166.628 130.03 164.778 129.693 163.154 129.019C161.493 128.346 160.096 127.41 158.925 126.137C157.717 124.902 156.848 123.443 156.206 121.684C155.565 119.962 155.262 118.053 155.262 115.957C155.262 113.862 155.565 111.953 156.206 110.194C156.848 108.472 157.717 107.012 158.925 105.777C160.096 104.542 161.493 103.607 163.154 102.933C164.778 102.259 166.628 101.922 168.667 101.922C170.706 101.922 172.557 102.259 174.218 102.933C175.842 103.607 177.239 104.542 178.447 105.777C179.618 107.012 180.486 108.472 181.128 110.194C181.77 111.953 182.072 113.862 182.072 115.957Z" fill="#FF267E"/>
</svg>
